<mxfile host="app.diagrams.net" modified="2021-11-05T14:36:18.246Z" agent="5.0 (Windows NT 10.0; Win64; x64) AppleWebKit/537.36 (KHTML, like Gecko) Chrome/95.0.4638.69 Safari/537.36" etag="b3rZYFveGq-OJZeEJ6hx" version="15.6.8" type="github" pages="3">
  <diagram id="C5RBs43oDa-KdzZeNtuy" name="Page-1">
    <mxGraphModel dx="976" dy="587" grid="1" gridSize="10" guides="1" tooltips="1" connect="1" arrows="1" fold="1" page="1" pageScale="1" pageWidth="827" pageHeight="1169" math="0" shadow="0">
      <root>
        <mxCell id="WIyWlLk6GJQsqaUBKTNV-0" />
        <mxCell id="WIyWlLk6GJQsqaUBKTNV-1" parent="WIyWlLk6GJQsqaUBKTNV-0" />
        <mxCell id="WIyWlLk6GJQsqaUBKTNV-2" value="" style="rounded=0;html=1;jettySize=auto;orthogonalLoop=1;fontSize=11;endArrow=block;endFill=0;endSize=8;strokeWidth=1;shadow=0;labelBackgroundColor=none;edgeStyle=orthogonalEdgeStyle;" parent="WIyWlLk6GJQsqaUBKTNV-1" source="WIyWlLk6GJQsqaUBKTNV-3" target="WIyWlLk6GJQsqaUBKTNV-6" edge="1">
          <mxGeometry relative="1" as="geometry" />
        </mxCell>
        <mxCell id="WIyWlLk6GJQsqaUBKTNV-3" value="Lamp doesn&#39;t work" style="rounded=1;whiteSpace=wrap;html=1;fontSize=12;glass=0;strokeWidth=1;shadow=0;" parent="WIyWlLk6GJQsqaUBKTNV-1" vertex="1">
          <mxGeometry x="160" y="80" width="120" height="40" as="geometry" />
        </mxCell>
        <mxCell id="WIyWlLk6GJQsqaUBKTNV-4" value="Yes" style="rounded=0;html=1;jettySize=auto;orthogonalLoop=1;fontSize=11;endArrow=block;endFill=0;endSize=8;strokeWidth=1;shadow=0;labelBackgroundColor=none;edgeStyle=orthogonalEdgeStyle;" parent="WIyWlLk6GJQsqaUBKTNV-1" source="WIyWlLk6GJQsqaUBKTNV-6" target="WIyWlLk6GJQsqaUBKTNV-10" edge="1">
          <mxGeometry y="20" relative="1" as="geometry">
            <mxPoint as="offset" />
          </mxGeometry>
        </mxCell>
        <mxCell id="WIyWlLk6GJQsqaUBKTNV-5" value="No" style="edgeStyle=orthogonalEdgeStyle;rounded=0;html=1;jettySize=auto;orthogonalLoop=1;fontSize=11;endArrow=block;endFill=0;endSize=8;strokeWidth=1;shadow=0;labelBackgroundColor=none;" parent="WIyWlLk6GJQsqaUBKTNV-1" source="WIyWlLk6GJQsqaUBKTNV-6" target="WIyWlLk6GJQsqaUBKTNV-7" edge="1">
          <mxGeometry y="10" relative="1" as="geometry">
            <mxPoint as="offset" />
          </mxGeometry>
        </mxCell>
        <mxCell id="WIyWlLk6GJQsqaUBKTNV-6" value="Lamp&lt;br&gt;plugged in?" style="rhombus;whiteSpace=wrap;html=1;shadow=0;fontFamily=Helvetica;fontSize=12;align=center;strokeWidth=1;spacing=6;spacingTop=-4;" parent="WIyWlLk6GJQsqaUBKTNV-1" vertex="1">
          <mxGeometry x="170" y="170" width="100" height="80" as="geometry" />
        </mxCell>
        <mxCell id="WIyWlLk6GJQsqaUBKTNV-7" value="Plug in lamp" style="rounded=1;whiteSpace=wrap;html=1;fontSize=12;glass=0;strokeWidth=1;shadow=0;" parent="WIyWlLk6GJQsqaUBKTNV-1" vertex="1">
          <mxGeometry x="320" y="190" width="120" height="40" as="geometry" />
        </mxCell>
        <mxCell id="WIyWlLk6GJQsqaUBKTNV-8" value="No" style="rounded=0;html=1;jettySize=auto;orthogonalLoop=1;fontSize=11;endArrow=block;endFill=0;endSize=8;strokeWidth=1;shadow=0;labelBackgroundColor=none;edgeStyle=orthogonalEdgeStyle;" parent="WIyWlLk6GJQsqaUBKTNV-1" source="WIyWlLk6GJQsqaUBKTNV-10" target="WIyWlLk6GJQsqaUBKTNV-11" edge="1">
          <mxGeometry x="0.3333" y="20" relative="1" as="geometry">
            <mxPoint as="offset" />
          </mxGeometry>
        </mxCell>
        <mxCell id="WIyWlLk6GJQsqaUBKTNV-9" value="Yes" style="edgeStyle=orthogonalEdgeStyle;rounded=0;html=1;jettySize=auto;orthogonalLoop=1;fontSize=11;endArrow=block;endFill=0;endSize=8;strokeWidth=1;shadow=0;labelBackgroundColor=none;" parent="WIyWlLk6GJQsqaUBKTNV-1" source="WIyWlLk6GJQsqaUBKTNV-10" target="WIyWlLk6GJQsqaUBKTNV-12" edge="1">
          <mxGeometry y="10" relative="1" as="geometry">
            <mxPoint as="offset" />
          </mxGeometry>
        </mxCell>
        <mxCell id="WIyWlLk6GJQsqaUBKTNV-10" value="Bulb&lt;br&gt;burned out?" style="rhombus;whiteSpace=wrap;html=1;shadow=0;fontFamily=Helvetica;fontSize=12;align=center;strokeWidth=1;spacing=6;spacingTop=-4;" parent="WIyWlLk6GJQsqaUBKTNV-1" vertex="1">
          <mxGeometry x="170" y="290" width="100" height="80" as="geometry" />
        </mxCell>
        <mxCell id="WIyWlLk6GJQsqaUBKTNV-11" value="Repair Lamp" style="rounded=1;whiteSpace=wrap;html=1;fontSize=12;glass=0;strokeWidth=1;shadow=0;" parent="WIyWlLk6GJQsqaUBKTNV-1" vertex="1">
          <mxGeometry x="160" y="430" width="120" height="40" as="geometry" />
        </mxCell>
        <mxCell id="WIyWlLk6GJQsqaUBKTNV-12" value="Replace Bulb" style="rounded=1;whiteSpace=wrap;html=1;fontSize=12;glass=0;strokeWidth=1;shadow=0;" parent="WIyWlLk6GJQsqaUBKTNV-1" vertex="1">
          <mxGeometry x="320" y="310" width="120" height="40" as="geometry" />
        </mxCell>
      </root>
    </mxGraphModel>
  </diagram>
  <diagram id="zEOFP_trFgTO0aMcyWaH" name="Page-2">
    <mxGraphModel dx="976" dy="587" grid="0" gridSize="10" guides="1" tooltips="1" connect="1" arrows="1" fold="1" page="1" pageScale="1" pageWidth="827" pageHeight="1169" math="0" shadow="0">
      <root>
        <mxCell id="jGwpKoTP84-BjFbROAiG-0" />
        <mxCell id="jGwpKoTP84-BjFbROAiG-1" parent="jGwpKoTP84-BjFbROAiG-0" />
        <mxCell id="jGwpKoTP84-BjFbROAiG-4" value="Automatized labelling" style="swimlane;" parent="jGwpKoTP84-BjFbROAiG-1" vertex="1">
          <mxGeometry x="210" y="10" width="307" height="554" as="geometry" />
        </mxCell>
        <mxCell id="jGwpKoTP84-BjFbROAiG-26" style="edgeStyle=orthogonalEdgeStyle;rounded=0;orthogonalLoop=1;jettySize=auto;html=1;entryX=0;entryY=0.5;entryDx=0;entryDy=0;" parent="jGwpKoTP84-BjFbROAiG-4" source="jGwpKoTP84-BjFbROAiG-17" target="jGwpKoTP84-BjFbROAiG-25" edge="1">
          <mxGeometry relative="1" as="geometry" />
        </mxCell>
        <mxCell id="jGwpKoTP84-BjFbROAiG-17" value="Script generador &lt;br&gt;de puntos faciales &lt;br&gt;y box de rostro" style="shape=parallelogram;perimeter=parallelogramPerimeter;whiteSpace=wrap;html=1;fixedSize=1;" parent="jGwpKoTP84-BjFbROAiG-4" vertex="1">
          <mxGeometry x="10" y="262" width="150" height="50" as="geometry" />
        </mxCell>
        <mxCell id="jGwpKoTP84-BjFbROAiG-20" style="edgeStyle=orthogonalEdgeStyle;rounded=0;orthogonalLoop=1;jettySize=auto;html=1;entryX=1;entryY=0.5;entryDx=0;entryDy=0;exitX=0.5;exitY=0;exitDx=0;exitDy=0;" parent="jGwpKoTP84-BjFbROAiG-4" source="jGwpKoTP84-BjFbROAiG-19" target="jGwpKoTP84-BjFbROAiG-17" edge="1">
          <mxGeometry relative="1" as="geometry">
            <mxPoint x="110" y="362" as="targetPoint" />
            <Array as="points">
              <mxPoint x="219" y="287" />
            </Array>
          </mxGeometry>
        </mxCell>
        <mxCell id="jGwpKoTP84-BjFbROAiG-19" value="Modelo de detecci칩n de rostro.&lt;br&gt;Modelo de detecci칩n de puntos faciales" style="shape=document;whiteSpace=wrap;html=1;boundedLbl=1;" parent="jGwpKoTP84-BjFbROAiG-4" vertex="1">
          <mxGeometry x="152" y="389" width="134" height="100" as="geometry" />
        </mxCell>
        <mxCell id="jGwpKoTP84-BjFbROAiG-25" value="Etiquetas de puntos faciales y box de rostro" style="shape=document;whiteSpace=wrap;html=1;boundedLbl=1;" parent="jGwpKoTP84-BjFbROAiG-4" vertex="1">
          <mxGeometry x="110" y="152" width="145" height="60" as="geometry" />
        </mxCell>
        <mxCell id="jGwpKoTP84-BjFbROAiG-6" value="Frames generate" style="swimlane;" parent="jGwpKoTP84-BjFbROAiG-1" vertex="1">
          <mxGeometry x="10" y="9" width="200" height="554" as="geometry" />
        </mxCell>
        <mxCell id="jGwpKoTP84-BjFbROAiG-13" style="edgeStyle=orthogonalEdgeStyle;rounded=0;orthogonalLoop=1;jettySize=auto;html=1;exitX=1;exitY=0.5;exitDx=0;exitDy=0;exitPerimeter=0;entryX=0.5;entryY=0;entryDx=0;entryDy=0;" parent="jGwpKoTP84-BjFbROAiG-6" source="jGwpKoTP84-BjFbROAiG-7" target="jGwpKoTP84-BjFbROAiG-10" edge="1">
          <mxGeometry relative="1" as="geometry" />
        </mxCell>
        <mxCell id="jGwpKoTP84-BjFbROAiG-7" value="Videos de operaci칩n" style="shape=cylinder3;whiteSpace=wrap;html=1;boundedLbl=1;backgroundOutline=1;size=15;" parent="jGwpKoTP84-BjFbROAiG-6" vertex="1">
          <mxGeometry x="12" y="41" width="60" height="80" as="geometry" />
        </mxCell>
        <mxCell id="jGwpKoTP84-BjFbROAiG-16" style="edgeStyle=orthogonalEdgeStyle;rounded=0;orthogonalLoop=1;jettySize=auto;html=1;exitX=0.5;exitY=1;exitDx=0;exitDy=0;entryX=0.5;entryY=0;entryDx=0;entryDy=0;" parent="jGwpKoTP84-BjFbROAiG-6" source="jGwpKoTP84-BjFbROAiG-10" target="jGwpKoTP84-BjFbROAiG-15" edge="1">
          <mxGeometry relative="1" as="geometry" />
        </mxCell>
        <mxCell id="jGwpKoTP84-BjFbROAiG-10" value="Script generador &lt;br&gt;de frames." style="shape=parallelogram;perimeter=parallelogramPerimeter;whiteSpace=wrap;html=1;fixedSize=1;" parent="jGwpKoTP84-BjFbROAiG-6" vertex="1">
          <mxGeometry x="35" y="149" width="130" height="40" as="geometry" />
        </mxCell>
        <mxCell id="jGwpKoTP84-BjFbROAiG-23" style="edgeStyle=orthogonalEdgeStyle;rounded=0;orthogonalLoop=1;jettySize=auto;html=1;" parent="jGwpKoTP84-BjFbROAiG-6" source="jGwpKoTP84-BjFbROAiG-15" target="jGwpKoTP84-BjFbROAiG-22" edge="1">
          <mxGeometry relative="1" as="geometry" />
        </mxCell>
        <mxCell id="jGwpKoTP84-BjFbROAiG-15" value="Frames de videos en formato *.jpg" style="shape=document;whiteSpace=wrap;html=1;boundedLbl=1;" parent="jGwpKoTP84-BjFbROAiG-6" vertex="1">
          <mxGeometry x="37.5" y="228" width="125" height="60" as="geometry" />
        </mxCell>
        <mxCell id="jGwpKoTP84-BjFbROAiG-22" value="Im치genes en *.jpg&lt;br&gt;(frames)" style="shape=cylinder3;whiteSpace=wrap;html=1;boundedLbl=1;backgroundOutline=1;size=15;" parent="jGwpKoTP84-BjFbROAiG-6" vertex="1">
          <mxGeometry x="65" y="369" width="70" height="90" as="geometry" />
        </mxCell>
        <mxCell id="jGwpKoTP84-BjFbROAiG-24" style="edgeStyle=orthogonalEdgeStyle;rounded=0;orthogonalLoop=1;jettySize=auto;html=1;exitX=1;exitY=0.5;exitDx=0;exitDy=0;exitPerimeter=0;entryX=0.5;entryY=1;entryDx=0;entryDy=0;" parent="jGwpKoTP84-BjFbROAiG-1" source="jGwpKoTP84-BjFbROAiG-22" target="jGwpKoTP84-BjFbROAiG-17" edge="1">
          <mxGeometry relative="1" as="geometry" />
        </mxCell>
        <mxCell id="jGwpKoTP84-BjFbROAiG-31" style="edgeStyle=orthogonalEdgeStyle;rounded=0;orthogonalLoop=1;jettySize=auto;html=1;exitX=0.5;exitY=1;exitDx=0;exitDy=0;exitPerimeter=0;entryX=0.5;entryY=1;entryDx=0;entryDy=0;" parent="jGwpKoTP84-BjFbROAiG-1" source="jGwpKoTP84-BjFbROAiG-22" target="jGwpKoTP84-BjFbROAiG-28" edge="1">
          <mxGeometry relative="1" as="geometry">
            <Array as="points">
              <mxPoint x="110" y="517" />
              <mxPoint x="617" y="517" />
            </Array>
          </mxGeometry>
        </mxCell>
        <mxCell id="jGwpKoTP84-BjFbROAiG-5" value="Label correction" style="swimlane;" parent="jGwpKoTP84-BjFbROAiG-1" vertex="1">
          <mxGeometry x="517" y="10" width="235" height="554" as="geometry" />
        </mxCell>
        <mxCell id="jGwpKoTP84-BjFbROAiG-33" style="edgeStyle=orthogonalEdgeStyle;rounded=0;orthogonalLoop=1;jettySize=auto;html=1;exitX=1;exitY=0.5;exitDx=0;exitDy=0;" parent="jGwpKoTP84-BjFbROAiG-5" source="jGwpKoTP84-BjFbROAiG-28" target="jGwpKoTP84-BjFbROAiG-32" edge="1">
          <mxGeometry relative="1" as="geometry">
            <Array as="points">
              <mxPoint x="180" y="182" />
            </Array>
          </mxGeometry>
        </mxCell>
        <mxCell id="jGwpKoTP84-BjFbROAiG-28" value="Correcci칩n de etiquetas" style="shape=parallelogram;perimeter=parallelogramPerimeter;whiteSpace=wrap;html=1;fixedSize=1;" parent="jGwpKoTP84-BjFbROAiG-5" vertex="1">
          <mxGeometry x="40" y="152" width="120" height="60" as="geometry" />
        </mxCell>
        <mxCell id="jGwpKoTP84-BjFbROAiG-32" value="Etiquetas en formato *.JSON o *.XML" style="shape=cylinder3;whiteSpace=wrap;html=1;boundedLbl=1;backgroundOutline=1;size=15;" parent="jGwpKoTP84-BjFbROAiG-5" vertex="1">
          <mxGeometry x="146" y="298" width="80" height="100" as="geometry" />
        </mxCell>
        <mxCell id="jGwpKoTP84-BjFbROAiG-30" style="edgeStyle=orthogonalEdgeStyle;rounded=0;orthogonalLoop=1;jettySize=auto;html=1;exitX=1;exitY=0.5;exitDx=0;exitDy=0;entryX=0;entryY=0.5;entryDx=0;entryDy=0;" parent="jGwpKoTP84-BjFbROAiG-1" source="jGwpKoTP84-BjFbROAiG-25" target="jGwpKoTP84-BjFbROAiG-28" edge="1">
          <mxGeometry relative="1" as="geometry" />
        </mxCell>
      </root>
    </mxGraphModel>
  </diagram>
  <diagram name="Process_English" id="Z43BUQon1FSwOXQ2RdB8">
    <mxGraphModel dx="4880" dy="2935" grid="0" gridSize="10" guides="1" tooltips="1" connect="1" arrows="1" fold="1" page="1" pageScale="1" pageWidth="827" pageHeight="1169" math="0" shadow="0">
      <root>
        <mxCell id="iNw9Pw7DU7dgwjrCMBN8-0" />
        <mxCell id="iNw9Pw7DU7dgwjrCMBN8-1" parent="iNw9Pw7DU7dgwjrCMBN8-0" />
        <mxCell id="iNw9Pw7DU7dgwjrCMBN8-2" value="Automatized labelling" style="swimlane;" vertex="1" parent="iNw9Pw7DU7dgwjrCMBN8-1">
          <mxGeometry x="246" y="22" width="307" height="554" as="geometry" />
        </mxCell>
        <mxCell id="iNw9Pw7DU7dgwjrCMBN8-3" style="edgeStyle=orthogonalEdgeStyle;rounded=0;orthogonalLoop=1;jettySize=auto;html=1;entryX=0.5;entryY=0;entryDx=0;entryDy=0;" edge="1" parent="iNw9Pw7DU7dgwjrCMBN8-2" source="iNw9Pw7DU7dgwjrCMBN8-4" target="iNw9Pw7DU7dgwjrCMBN8-7">
          <mxGeometry relative="1" as="geometry" />
        </mxCell>
        <mxCell id="iNw9Pw7DU7dgwjrCMBN8-4" value="Automatized labelling Script" style="shape=parallelogram;perimeter=parallelogramPerimeter;whiteSpace=wrap;html=1;fixedSize=1;" vertex="1" parent="iNw9Pw7DU7dgwjrCMBN8-2">
          <mxGeometry x="52" y="145" width="150" height="50" as="geometry" />
        </mxCell>
        <mxCell id="iNw9Pw7DU7dgwjrCMBN8-33" style="edgeStyle=orthogonalEdgeStyle;rounded=0;orthogonalLoop=1;jettySize=auto;html=1;exitX=0;exitY=0.5;exitDx=0;exitDy=0;" edge="1" parent="iNw9Pw7DU7dgwjrCMBN8-2" source="iNw9Pw7DU7dgwjrCMBN8-6" target="iNw9Pw7DU7dgwjrCMBN8-4">
          <mxGeometry relative="1" as="geometry" />
        </mxCell>
        <mxCell id="iNw9Pw7DU7dgwjrCMBN8-6" value="Face detection and Facial keypoints detection Models" style="shape=document;whiteSpace=wrap;html=1;boundedLbl=1;" vertex="1" parent="iNw9Pw7DU7dgwjrCMBN8-2">
          <mxGeometry x="177" y="46" width="117" height="77" as="geometry" />
        </mxCell>
        <mxCell id="iNw9Pw7DU7dgwjrCMBN8-7" value="Label files in *.json" style="shape=document;whiteSpace=wrap;html=1;boundedLbl=1;" vertex="1" parent="iNw9Pw7DU7dgwjrCMBN8-2">
          <mxGeometry x="75" y="251" width="108" height="43" as="geometry" />
        </mxCell>
        <mxCell id="iNw9Pw7DU7dgwjrCMBN8-8" value="Frames generate" style="swimlane;" vertex="1" parent="iNw9Pw7DU7dgwjrCMBN8-2">
          <mxGeometry x="-228" width="228" height="554" as="geometry" />
        </mxCell>
        <mxCell id="iNw9Pw7DU7dgwjrCMBN8-9" style="edgeStyle=orthogonalEdgeStyle;rounded=0;orthogonalLoop=1;jettySize=auto;html=1;exitX=1;exitY=0.5;exitDx=0;exitDy=0;exitPerimeter=0;entryX=0.5;entryY=0;entryDx=0;entryDy=0;" edge="1" parent="iNw9Pw7DU7dgwjrCMBN8-8" source="iNw9Pw7DU7dgwjrCMBN8-10" target="iNw9Pw7DU7dgwjrCMBN8-12">
          <mxGeometry relative="1" as="geometry" />
        </mxCell>
        <mxCell id="iNw9Pw7DU7dgwjrCMBN8-10" value="Operation videos DB" style="shape=cylinder3;whiteSpace=wrap;html=1;boundedLbl=1;backgroundOutline=1;size=15;" vertex="1" parent="iNw9Pw7DU7dgwjrCMBN8-8">
          <mxGeometry x="12" y="41" width="60" height="80" as="geometry" />
        </mxCell>
        <mxCell id="iNw9Pw7DU7dgwjrCMBN8-11" style="edgeStyle=orthogonalEdgeStyle;rounded=0;orthogonalLoop=1;jettySize=auto;html=1;exitX=0.5;exitY=1;exitDx=0;exitDy=0;entryX=0.5;entryY=0;entryDx=0;entryDy=0;" edge="1" parent="iNw9Pw7DU7dgwjrCMBN8-8" source="iNw9Pw7DU7dgwjrCMBN8-12" target="iNw9Pw7DU7dgwjrCMBN8-14">
          <mxGeometry relative="1" as="geometry" />
        </mxCell>
        <mxCell id="iNw9Pw7DU7dgwjrCMBN8-12" value="Frames generate&#39;s&lt;br&gt;Script" style="shape=parallelogram;perimeter=parallelogramPerimeter;whiteSpace=wrap;html=1;fixedSize=1;" vertex="1" parent="iNw9Pw7DU7dgwjrCMBN8-8">
          <mxGeometry x="77" y="149" width="136" height="40" as="geometry" />
        </mxCell>
        <mxCell id="iNw9Pw7DU7dgwjrCMBN8-26" style="edgeStyle=orthogonalEdgeStyle;rounded=0;orthogonalLoop=1;jettySize=auto;html=1;entryX=0.5;entryY=0;entryDx=0;entryDy=0;" edge="1" parent="iNw9Pw7DU7dgwjrCMBN8-8" source="iNw9Pw7DU7dgwjrCMBN8-14" target="iNw9Pw7DU7dgwjrCMBN8-23">
          <mxGeometry relative="1" as="geometry" />
        </mxCell>
        <mxCell id="iNw9Pw7DU7dgwjrCMBN8-14" value="Frames files in *.jpg" style="shape=document;whiteSpace=wrap;html=1;boundedLbl=1;" vertex="1" parent="iNw9Pw7DU7dgwjrCMBN8-8">
          <mxGeometry x="76.5" y="228" width="125" height="46" as="geometry" />
        </mxCell>
        <mxCell id="iNw9Pw7DU7dgwjrCMBN8-29" style="edgeStyle=orthogonalEdgeStyle;rounded=0;orthogonalLoop=1;jettySize=auto;html=1;exitX=0;exitY=0.5;exitDx=0;exitDy=0;" edge="1" parent="iNw9Pw7DU7dgwjrCMBN8-8" source="iNw9Pw7DU7dgwjrCMBN8-23" target="iNw9Pw7DU7dgwjrCMBN8-28">
          <mxGeometry relative="1" as="geometry" />
        </mxCell>
        <mxCell id="iNw9Pw7DU7dgwjrCMBN8-30" value="NO" style="edgeLabel;html=1;align=center;verticalAlign=middle;resizable=0;points=[];" vertex="1" connectable="0" parent="iNw9Pw7DU7dgwjrCMBN8-29">
          <mxGeometry x="-0.0565" y="2" relative="1" as="geometry">
            <mxPoint as="offset" />
          </mxGeometry>
        </mxCell>
        <mxCell id="ZCXx9BNPgvVXBRDqdzeE-0" style="edgeStyle=orthogonalEdgeStyle;rounded=0;orthogonalLoop=1;jettySize=auto;html=1;exitX=0.5;exitY=1;exitDx=0;exitDy=0;" edge="1" parent="iNw9Pw7DU7dgwjrCMBN8-8" source="iNw9Pw7DU7dgwjrCMBN8-23" target="iNw9Pw7DU7dgwjrCMBN8-15">
          <mxGeometry relative="1" as="geometry" />
        </mxCell>
        <mxCell id="ZCXx9BNPgvVXBRDqdzeE-1" value="YES" style="edgeLabel;html=1;align=center;verticalAlign=middle;resizable=0;points=[];" vertex="1" connectable="0" parent="ZCXx9BNPgvVXBRDqdzeE-0">
          <mxGeometry x="-0.2673" relative="1" as="geometry">
            <mxPoint as="offset" />
          </mxGeometry>
        </mxCell>
        <mxCell id="iNw9Pw7DU7dgwjrCMBN8-23" value="Valid?" style="rhombus;whiteSpace=wrap;html=1;" vertex="1" parent="iNw9Pw7DU7dgwjrCMBN8-8">
          <mxGeometry x="99" y="289" width="80" height="45" as="geometry" />
        </mxCell>
        <mxCell id="iNw9Pw7DU7dgwjrCMBN8-28" value="Delete" style="rounded=0;whiteSpace=wrap;html=1;" vertex="1" parent="iNw9Pw7DU7dgwjrCMBN8-8">
          <mxGeometry x="16.5" y="344" width="60" height="28" as="geometry" />
        </mxCell>
        <mxCell id="iNw9Pw7DU7dgwjrCMBN8-15" value="Im치genes en *.jpg&lt;br&gt;(frames)" style="shape=cylinder3;whiteSpace=wrap;html=1;boundedLbl=1;backgroundOutline=1;size=15;" vertex="1" parent="iNw9Pw7DU7dgwjrCMBN8-8">
          <mxGeometry x="104" y="378" width="70" height="90" as="geometry" />
        </mxCell>
        <mxCell id="ZCXx9BNPgvVXBRDqdzeE-3" style="edgeStyle=orthogonalEdgeStyle;rounded=0;orthogonalLoop=1;jettySize=auto;html=1;entryX=0;entryY=0.5;entryDx=0;entryDy=0;" edge="1" parent="iNw9Pw7DU7dgwjrCMBN8-2" source="iNw9Pw7DU7dgwjrCMBN8-15" target="iNw9Pw7DU7dgwjrCMBN8-4">
          <mxGeometry relative="1" as="geometry">
            <Array as="points">
              <mxPoint x="17" y="423" />
              <mxPoint x="17" y="170" />
            </Array>
          </mxGeometry>
        </mxCell>
        <mxCell id="iNw9Pw7DU7dgwjrCMBN8-18" value="Label correction" style="swimlane;" vertex="1" parent="iNw9Pw7DU7dgwjrCMBN8-1">
          <mxGeometry x="553" y="22" width="235" height="554" as="geometry" />
        </mxCell>
        <mxCell id="iNw9Pw7DU7dgwjrCMBN8-19" style="edgeStyle=orthogonalEdgeStyle;rounded=0;orthogonalLoop=1;jettySize=auto;html=1;exitX=1;exitY=0.5;exitDx=0;exitDy=0;" edge="1" parent="iNw9Pw7DU7dgwjrCMBN8-18" source="iNw9Pw7DU7dgwjrCMBN8-20" target="iNw9Pw7DU7dgwjrCMBN8-21">
          <mxGeometry relative="1" as="geometry">
            <Array as="points">
              <mxPoint x="180" y="182" />
            </Array>
          </mxGeometry>
        </mxCell>
        <mxCell id="iNw9Pw7DU7dgwjrCMBN8-20" value="Correcci칩n de etiquetas" style="shape=parallelogram;perimeter=parallelogramPerimeter;whiteSpace=wrap;html=1;fixedSize=1;" vertex="1" parent="iNw9Pw7DU7dgwjrCMBN8-18">
          <mxGeometry x="40" y="152" width="120" height="60" as="geometry" />
        </mxCell>
        <mxCell id="iNw9Pw7DU7dgwjrCMBN8-21" value="Etiquetas en formato *.JSON o *.XML" style="shape=cylinder3;whiteSpace=wrap;html=1;boundedLbl=1;backgroundOutline=1;size=15;" vertex="1" parent="iNw9Pw7DU7dgwjrCMBN8-18">
          <mxGeometry x="146" y="298" width="80" height="100" as="geometry" />
        </mxCell>
      </root>
    </mxGraphModel>
  </diagram>
</mxfile>
